# xmcd
#
# Track frame offsets: 
#        150
#        16679
#        33970
#        52469
#        69626
#        86383
#        104065
#        123809
#        157258
#        175862
#        193656
#        208616
#        228394
#        246154
#        281496
#        311407
#        336494
#
# Disc length: 4772 seconds
#
# Revision: 0
# Processed by: cddbd v1.5.1PL2 Copyright (c) Steve Scherf et al.
# Submitted via: ExactAudioCopy v0.95b1
#
DISCID=f512a211
DTITLE=A-Ha - Analogue (Full Edition)
DYEAR=2005
DGENRE=Blues
TTITLE0=Celice
TTITLE1=Don't Do Me Any Favours
TTITLE2=Cosy Prison
TTITLE3=Analogue
TTITLE4=Brithright
TTITLE5=Holygroung
TTITLE6=Over The Treetops
TTITLE7=Halfway Through The Tour
TTITLE8=A Fine Blue Line
TTITLE9=Keeper Of The Flame
TTITLE10=Make It Soon
TTITLE11=White Dwarf
TTITLE12=The Summers Of Our Youth
TTITLE13=Celice (Tomas Schumacher remix)
TTITLE14=Celice (Boris Dlugosch remix)
TTITLE15=Ctlice (Paul Van Dyk's extended mix)
TTITLE16=Ctlice (Paul Van Dyk's vocalized clubmix)
EXTD=
EXTT0=
EXTT1=
EXTT2=
EXTT3=
EXTT4=
EXTT5=
EXTT6=
EXTT7=
EXTT8=
EXTT9=
EXTT10=
EXTT11=
EXTT12=
EXTT13=
EXTT14=
EXTT15=
EXTT16=
PLAYORDER=
